<svg t="1732605153080" class="icon" viewBox="0 0 1024 1024" version="1.1" xmlns="http://www.w3.org/2000/svg" p-id="4384" width="200" height="200"><path d="M771.988 947.44l-403.54-405.135c-15.95-15.95-15.95-43.065 0-60.61l406.73-406.73c17.545-15.95 19.14-43.065 3.19-60.61C770.393 4.785 759.228 0 746.468 0s-23.926 4.785-31.901 14.355l-9.57 9.57-457.77 459.365c-15.95 15.95-15.95 43.065 0 60.61l467.34 467.34c7.975 7.975 17.545 12.76 28.71 12.76 23.925 0 43.066-19.14 43.066-41.47 1.595-14.356-4.785-27.116-14.355-35.09z" fill="#2c2c2c" p-id="4385"></path></svg>